<svg xmlns="http://www.w3.org/2000/svg" viewBox="0 0 622.84137 165.00822" version="1.1"><g><path d="M35.8 76.5 C16 76.5 0 92.6 0 112.4 c-0 19.8 16 35.8 35.8 35.8 19.8 0 35.8 -16 35.8 -35.8C71.6 92.6 55.6 76.5 35.8 76.5 Zm-0.1 6.4c16.2 -0 29.4 13.2 29.4 29.4 0 16.2 -13.2 29.4 -29.4 29.4C19.5 141.7 6.4 128.6 6.4 112.3 6.4 96.1 19.5 82.9 35.7 82.9 ZM51.3 59.5 c-4.1 -0.3 -4.6 1 -5.8 3.9 -1.3 4.6 -2.6 9.1 -3.9 13.7l0.3 0.1c-3.4 12 -7.8 27.3 -9.4 33.3 0 2.2 0.6 3 2.4 4 0.5 0 1 0 1.6 0.1 0.4 -0.1 0.9 -0.3 1.4 -0.4 0.4 -0.5 0.7 -0.9 1.2 -1.4 5.5 -19.6 7.6 -27.4 9.3 -33.7l0 0c0.6 -2.3 1.3 -4.6 1.9 -6.9 1.8 1.5 3.8 2.8 6 3.7 2.1 0.3 4.4 0.7 6.5 0.7 1.1 -0.2 2.2 -0.4 3.4 -0.5 1.2 -0.3 2.3 -0.6 3.5 -0.9 0.8 -0.4 1.6 -0.7 2.5 -1 0.5 -0.4 1.1 -0.8 1.7 -1.2 0.2 -0.7 0.4 -1.3 0.7 -1.9 0 -0.5 -0.1 -1 -0.1 -1.4 -1.1 -2.1 -2 -2.4 -4.3 -2.4 -1.8 0.6 -3.7 1.3 -5.5 1.9 -3.5 0.4 -6 0 -9 -1.8 -0.5 -0.5 -1 -1.1 -1.4 -1.7 -0.6 -2.2 -0.6 -5.2 -3 -6.2zM75 0 c-1.2 0 -2.4 0.2 -3.6 0.4 -0.9 0.3 -1.7 0.6 -2.6 1 -0.8 0.5 -1.7 1.1 -2.5 1.7 -1.6 1.5 -2.8 3.3 -4 5 -1.9 4 -1.6 8.1 -0.5 12.1 0.1 0.4 0.3 0.7 0.5 1.1 0.6 1 1.3 2 2 3 3 2.7 5.5 4.4 9.6 5.1l3.4 0c0.8 -0.2 1.6 -0.4 2.4 -0.5 0.9 -0.3 1.7 -0.6 2.6 -0.9 1.3 -1.1 2.6 -2.1 4 -3.1 0.8 -1 1.5 -2 2.2 -3l0.4 0c3.2 1.4 6.3 2.8 9.5 4.2 -0.8 2.3 -1.5 4.6 -2.2 6.9 -1.5 2.9 -3.3 5.7 -5 8.5 -1.7 1.9 -3.5 3.7 -5.2 5.6 -0.1 0.1 -0.1 0.3 -0.1 0.4 -0.2 0 -0.3 0 -0.4 0.1 -1.3 1.5 -3.3 2.8 -4.9 4 -3.3 1.8 -7.7 4.5 -11.6 4.5a7.6 7.6 0 0 0 -6.3 -3.4 7.6 7.6 0 0 0 -7.6 7.6 7.6 7.6 0 0 0 7.6 7.6 7.6 7.6 0 0 0 6.8 -4.3l0 0c1.6 -0.5 3.3 -0.8 5 -1.2 1 -0.4 2 -0.7 3 -1.1l6.9 -3.6c1.2 -1 2.4 -1.8 3.6 -2.7 2.1 -2.1 4.2 -4.1 6.4 -6.1 0.8 -1.2 1.8 -2.3 2.7 -3.4 3.2 -4.8 6.1 -9.9 7.5 -15.5 0.7 0 3 2 3.2 2.1 2.7 2 5.4 4.1 8.1 6.2 4.2 3.9 8.1 8.1 12 12.3 1.3 1.7 2.6 3.5 4 5.3 2 2.9 3.7 5.9 5.3 9 -1.5 0.2 -3 0.4 -4.4 0.7 -4.3 1.2 -8.4 2.8 -12.4 4.8 -1.2 1 -2.6 2.1 -4 2.9 -1.5 1.3 -2.8 2.5 -4.2 3.7 -1 1 -2 2.1 -2.9 3.2 -3.8 4.9 -7.1 10.5 -9.1 16.3 -1.2 4.8 -2.5 9.6 -2.5 14.5l0 0a10.4 6.9 0 0 0 -3.5 -0.4 10.4 6.9 0 0 0 -10.4 6.9 10.4 6.9 0 0 0 10.4 6.9 10.4 6.9 0 0 0 10.3 -6l0 0c0 0 0 -0.2 0 -0.2a10.4 6.9 0 0 0 0.1 -0.8 10.4 6.9 0 0 0 0 -0.4c0.1 -1.5 0.3 -6 0.3 -8.9 0.6 -3.1 1.3 -6.3 1.9 -9.4 0.6 -1.6 1.3 -3.2 1.9 -4.7 1.1 -2.2 2.3 -4.3 3.5 -6.4 0.8 -1.1 1.6 -2.1 2.4 -3.1 2.6 -2.8 5.4 -5.4 8.6 -7.6 4.1 -2.1 8.2 -3.8 12.7 -4.8 2.5 -0.3 5.1 -0.5 7.7 -0.7 0.4 -0.3 0.9 -0.5 1.3 -0.7 0.8 -1 1.2 -1.9 1.2 -3.2 -1 -3.3 -2.7 -6.4 -4.3 -9.4 -1.3 -2 -2.5 -4.1 -3.7 -6 -3.1 -4.4 -6.7 -8.5 -10.2 -12.6 -2.5 -2.4 -5.1 -4.8 -7.5 -7.1 -5 -3.8 -10.2 -7.7 -15.5 -11.1 -3 -1.5 -5.9 -3.1 -8.9 -4.5C94.1 16.2 92.3 15.5 90.4 14.9 90.1 13.1 89.8 11.3 89.6 9.6 88.4 7 86.9 5.1 84.9 3.1 81.8 0.7 78.6 -0.1 75 0 Zm80.4 112.4a7.6 7.6 0 0 1 -7.6 7.6 7.6 7.6 0 0 1 -7.6 -7.6 7.6 7.6 0 0 1 7.6 -7.6 7.6 7.6 0 0 1 7.6 7.6zm-7.6 -35.9a35.8 35.8 0 0 0 -35.8 35.8 35.8 35.8 0 0 0 35.8 35.8 35.8 35.8 0 0 0 35.8 -35.8 35.8 35.8 0 0 0 -35.8 -35.8zm-0.1 6.4A29.4 29.4 0 0 1 177.1 112.3 29.4 29.4 0 0 1 147.7 141.7 29.4 29.4 0 0 1 118.4 112.3 29.4 29.4 0 0 1 147.7 82.9 ZM495 34.8 c-9.3 -0 -16.8 7.5 -16.8 16.8 -0 9.3 7.5 16.8 16.8 16.8 9.3 0 16.8 -7.5 16.8 -16.8 0 -9.3 -7.5 -16.8 -16.8 -16.8zm0.7 7.1 -0.6 2.7 -4.2 1.8c-0.1 -0.4 -2.5 -1.6 -3 -1.8 0.3 -0.3 0.6 -0.6 0.9 -0.8 2.5 -1.4 4 -1.9 6.9 -1.9zm3.2 0.7c1.9 0.9 3.1 2 4.3 3.6 -1.1 0.5 -2.2 1.1 -3.2 1.7l0 -0.1 -1.7 -1.7c0.1 -1.2 0.4 -2.4 0.6 -3.5zm-13 4.8c0.6 0.4 1.4 0.7 2.1 1.2 0.1 1.2 1.1 3.7 0.7 4.8 -1 0.7 -2 1.4 -3 2.2l0.1 -0.1c-0.9 -2.8 -0.6 -5.3 0.1 -8.1zm9.9 0.7c0.6 0.7 1.4 1.4 2.1 2.2 0 0.9 -0.4 1.7 -0.8 2.6 -0.9 0.4 -1.8 0.9 -2.6 1.3 -0.8 -0.4 -1.6 -0.9 -2.3 -1.3 -0.2 -0.9 -0.4 -1.9 -0.5 -2.8 0.3 -0.2 0.6 -0.4 0.9 -0.5 0 -0.7 2.7 -1.5 3.2 -1.5zm8.8 1.2c0.1 1.4 0.4 3.5 -0.2 4.7 -1.2 -0.6 -2.3 -1.2 -3.5 -1.8 0.1 -0.5 0.3 -1 0.5 -1.5 1 -0.5 2.1 -0.9 3.2 -1.4zm-5 6c1.2 0.5 2.4 1.1 3.7 1.7 -0.8 0.9 -1.5 1.7 -2.2 2.6 -1.2 0.5 -2.3 1 -3.4 1.6l0 -0.1c-0.1 -1.5 -0.3 -3 -0.4 -4.5 0.7 -0.4 1.5 -0.9 2.3 -1.3zm-8.6 0.6c1.1 0.6 2.2 1.2 3.2 1.7 0.1 1.2 0.3 2.4 0.4 3.6 -0.4 0 -0.7 0.1 -1 0.1l0 0.1c-2.2 -0.6 -4.4 -1.7 -6.1 -3.2 0.9 -0.6 2.4 -2.3 3.5 -2.3zM608.2 10.9 a14.6 14.6 0 0 0 -14.6 14.6 14.6 14.6 0 0 0 2.5 8.2L596.1 33.7 c-3.6 4.2 -7.4 9.4 -10.5 13.9 -3.5 -0.8 -7 -1.6 -10.7 -2 -2.5 0.1 -5 0.1 -7.4 0.2 -2 0.4 -4.1 0.7 -6 1.1 -2 0.6 -4.1 1.3 -6 1.9l-4.5 1.8c0 0 0 0 0 0A7.6 7.6 0 0 0 546.6 49.2 a7.6 7.6 0 0 0 -7.6 7.6 7.6 7.6 0 0 0 7.6 7.6 7.6 7.6 0 0 0 7.6 -7.4c2.9 -1.2 6.1 -2.3 9.1 -3.2 3.7 -0.7 7.3 -1.1 11 -1.1 2.5 0.3 4.9 0.7 7.3 1.2 -4.3 7.8 -8.5 15.6 -11.7 23.9 -1.3 3.7 -2.6 7.5 -3.8 11.2 -0.6 1.9 -1.2 3.9 -1.7 5.8 -7 -5.5 -14.2 -11.4 -21.3 -16.8 -0.8 -0.4 -1.8 -0.3 -2.7 -0.3 -9.2 6.2 -18.3 12.4 -27.4 18.6 -2.4 -4.3 -8.8 -9.5 -13.8 -6.5 -2.7 2.3 -2.1 3.8 -1.8 6.8 2.5 5.1 6.8 9.6 12.9 9.6 1.2 -0.4 2.4 -1.4 3.6 -2l27.3 -18.6c0.1 0 0.3 0 0.4 0.1l21 16.8c-1.7 9.1 -3.3 18.3 -4.7 27.4 -1 8.3 -2 16.7 -2.9 25.1 0 1.7 0.1 3.2 0.4 4.9 1.2 2 2.5 2.8 4.4 4l4.5 0.9 -0.2 0.2c2 -0.2 4 -0.4 6 -0.5 2.4 -1 5.1 -2.4 5.7 -5.1 0 -1 0 -2.1 -0.2 -3.1 -0.7 -0.8 -1.3 -1.5 -1.9 -2.2 -3.3 -2.4 -7.5 -2.6 -11.4 -2.2 0.6 -6.1 1.3 -12.1 2 -18.1 0.6 -4.4 1.3 -8.7 1.9 -13 1.2 -6.7 2.5 -13.5 3.8 -20.2 1 -3.4 1.9 -6.8 2.9 -10.2 1 -2.9 1.9 -5.7 2.9 -8.5 1.2 -3.3 2.5 -6.4 3.8 -9.6 1.2 -2.6 2.5 -5.1 3.8 -7.6l4.5 -7.8 2.7 1.8c3.8 3.6 7.3 7.7 9.1 12.7 0.3 1.2 2.7 8.4 1.1 9.2l0.3 -0.1a7.5 7.5 0 0 0 -2.4 5.5 7.5 7.5 0 0 0 7.5 7.5 7.5 7.5 0 0 0 7.5 -7.5 7.5 7.5 0 0 0 -5.3 -7.2c-0.3 -2.9 -0.9 -5.9 -1.6 -8.5 -0.6 -1.7 -1.3 -3.3 -1.9 -4.9 -1.1 -1.7 -2.1 -3.5 -3.1 -5.2 -1.1 -1.3 -2.2 -2.6 -3.2 -3.9 -1.4 -1.3 -2.8 -2.6 -4.2 -3.8 -0.8 -0.6 -1.6 -1.1 -2.3 -1.6 2.7 -3.9 6.5 -8.8 9.4 -12.4A14.6 14.6 0 0 0 608.2 40.1 14.6 14.6 0 0 0 622.8 25.5 14.6 14.6 0 0 0 608.2 10.9 ZM392.3 35.1 c-0.8 0.1 -1.6 0.3 -2.5 0.4 -2.7 1.5 -3.3 3.4 -3.9 6.3l0 3.3c0.5 1.7 1.1 3.5 1.7 5.2 -1.8 0.5 -3.6 1 -5.3 1.6 -1.6 0.6 -3.2 1.3 -4.8 1.9 -3.8 2.1 -7.6 4.2 -11.1 6.6 -2.2 1.8 -4.5 3.6 -6.7 5.5 -3.1 3.2 -6.2 6.3 -9.3 9.5 -5.1 -0.6 -10.3 -1.1 -15.3 -1.4 -4.9 -0.2 -9.9 0 -14.7 0.1 -4.1 0.4 -8.3 0.9 -12.5 1.4 -1.8 0.3 -3.6 0.5 -5.3 0.9 -3.8 1 -7.6 1.9 -11.3 2.9 -4 1.2 -7.9 2.5 -11.9 3.8 -11.5 4.8 -23.5 10 -34.7 15.4a7.5 7.5 0 0 0 -4.9 -1.8 7.5 7.5 0 0 0 -7.5 7.5 7.5 7.5 0 0 0 7.5 7.5 7.5 7.5 0 0 0 7.4 -6.8c6 -2.8 12.5 -5.8 18.4 -8.6 5.3 -2.2 10.5 -4.3 15.8 -6.4 9 -2.9 18.2 -6 27.6 -7.7 4 -0.4 8.1 -0.9 12.1 -1.3 3.8 -0.1 7.6 -0.1 11.4 -0.2 6.5 0.4 13 0.9 19.4 1.9 4.6 1.1 9.1 2.2 13.7 3.4 4.2 1.6 8.5 3.2 12.8 4.8 4.1 2.2 8.1 4.7 12 7.1 1.5 1.8 2.1 2.3 4.5 2.7 1.1 -0.3 2.2 -0.6 3.4 -0.9 1 -0.8 2 -1.7 3 -2.5 0.8 -1.3 1.8 -2.7 2.7 -4 1.1 -2.3 1.4 -4.8 1.4 -7.3 -0.2 -0.5 -0.3 -1 -0.4 -1.4 -0.5 -0.8 -1.1 -1.6 -1.7 -2.3 -3.9 -2.6 -7.3 -0.5 -10.2 2.4 -0.8 1.2 -2.8 3.5 -2.8 4.9 -3.2 -1.8 -6.5 -3.6 -9.7 -5.3 -0.2 -0.1 -0.4 -0.1 -0.5 -0.1 -4.2 -2.2 -9 -3.7 -13.6 -5.2 -2.6 -0.7 -5.3 -1.5 -7.9 -2.1 0.3 -0.2 1.7 -1.5 1.7 -1.9 3.7 -3.5 7.5 -6.9 11.7 -9.9 2.7 -1.6 5.4 -3.1 8.1 -4.6 1.7 -0.6 3.3 -1.3 5 -1.9 3.3 -1.1 7.4 -3 10.9 -3 2.7 -1 4.1 -3.5 4.5 -6.2 0 -3.5 -0.4 -6.6 -2.1 -9.6 -1.3 -1.8 -2.9 -4.1 -5.3 -4.5 -0.3 0 -0.6 0 -0.9 0zm-112.9 17a14.6 14.6 0 0 0 -14.6 14.6 14.6 14.6 0 0 0 14.6 14.6 14.6 14.6 0 0 0 14.6 -14.6 14.6 14.6 0 0 0 -14.6 -14.6zm92.9 63.2c-2.2 -0.4 -4.3 -0.6 -6.5 -0.9 -2.2 -0.6 -4.5 -1.3 -6.6 -1.9 -7.3 -3 -14.5 -6 -21.7 -9.1 -1.7 -0.5 -3.5 -1 -5.1 -1.4 -4.8 -0.9 -9.5 -0.9 -14.3 -0.4 -2.2 0.5 -4.5 1.1 -6.7 1.7 -2.1 0.8 -4.1 1.6 -6.1 2.4 -2.1 -0.2 -3.5 -1.2 -3.9 -3.3 0 -1.2 0.6 -2.2 1.3 -3.2 4.8 -1.9 9.4 -3.6 14.5 -4.7 1.4 -0.1 2.7 -0.3 4.1 -0.4 1.9 0 3.9 0 5.8 0 2.4 0.3 4.8 0.6 7.2 1 8.4 2.4 16.5 6.2 24.6 9.5 0.6 0.3 1.3 0.6 2 1 2.7 0.7 5.4 1.4 8.1 2.2 1.2 0.1 2.5 0.2 3.8 0.4 6.8 0 14.1 -1.1 20.4 -3.9 0.6 -0.1 1.2 -0.3 1.8 -0.4 7.3 -2.7 14.7 -5.4 22.3 -7.2 2.4 -0.3 4.8 -0.6 7.2 -0.9 1.4 0 3 0 4.5 0 5.6 0.3 10.6 1.4 15.8 3.6 1.7 0.9 3.3 1.7 5 2.6 3 1.8 5.8 4 8.6 6.2 0.4 0.6 0.9 1.4 1.4 2.1 0 0.5 0 1.1 0 1.7 -0.4 0.6 -0.8 1.3 -1.2 1.9 -0.5 0.2 -1 0.4 -1.4 0.7 -0.7 -0.1 -1.4 -0.1 -2.2 -0.1 -1.6 -1.3 -3.2 -2.5 -4.8 -3.7 -3.6 -2.2 -7.3 -4.6 -11.2 -6.1 -1.9 -0.5 -3.7 -1 -5.6 -1.4 -1.7 -0.1 -3.3 -0.3 -4.9 -0.4 -4.2 0 -8.5 0.4 -12.6 1.4 -1.7 0.4 -3.5 0.9 -5.1 1.4 -4.8 1.7 -9.5 3.5 -14.3 5.2 -3.2 0.6 -6.6 1.9 -9.7 2.9 -1.2 0.2 -2.4 0.4 -3.5 0.7 -1.9 0.2 -3.7 0.4 -5.6 0.7 -1.9 0 -3.7 0 -5.6 0.1zm-106.3 18.5c-0.8 -0.5 -1.5 -1 -2.2 -1.4 -0.9 -2.2 -0.6 -3.1 0.7 -5 2.7 -1.6 5.3 -3.2 8.1 -4.7 3.7 -1.6 7.5 -3.2 11.2 -4.8 4.3 -1.3 8.6 -2.6 13 -3.8 1.7 -0.4 3.5 -0.7 5.3 -1 4.1 -0.4 8.2 -0.9 12.3 -1.3 5 0 9.9 0.3 14.8 0.9 3 0.7 6 1.4 9.1 2.2 3.6 1.2 7.2 2.5 10.8 3.8 5.1 2.3 10.5 3.6 15.9 4.8 3 0 6 0.1 9.1 0.1 2.7 -0.5 5.6 -1.3 8.1 -2.4 2.4 -0.4 4.5 0.3 5 3 0 1.7 -0.9 2.9 -2.2 3.7 -2.5 0.8 -5 1.6 -7.4 2.4 -10.2 1.3 -20.6 0 -29.8 -4.6 -3.5 -1.1 -7.1 -2.6 -10.5 -3.8 -3 -0.7 -6 -1.4 -9.1 -2.2 -2 -0.3 -4 -0.5 -6 -0.7 -9.5 -0.4 -18.3 0.6 -27.6 2.9 -4.4 1.3 -8.8 2.8 -13 4.3 -4.8 2.3 -9.5 4.9 -14.2 7.4 -0.5 0 -1 0 -1.4 0.1z"/></g></svg>